PathFileType  4	(X/Y/Z) C:\Users\antoi\Documents\MyRepositories\mobilecap\ResultsAnalysis
DataRate	CameraRate	NumFrames	NumMarkers	Units	OrigDataRate	OrigDataStartFrame	OrigNumFrames
100.0	100.0	6	51	mm	100.0	101	801
Frame#	Time	r_knee			r_shank_antsup			r_ankle			r_calc			r_5meta			r_toe			L_knee			L_shank_antsup			L_ankle			L_calc			L_5meta			L_toe			r_sh2			r_sh3			r_sh4			L_sh2			L_sh3			r_thigh1			r_thigh2			r_thigh3			r_thigh4			r_thigh5			L_thigh1			L_thigh2			L_thigh3			L_thigh4			r.ASIS			r.PSIS			L.ASIS			L.PSIS			C7			R_Shoulder			L_Shoulder			R_Sternum			L_Sternum			R_humerus			R_elbow_med			R_elbow_lat			R_forearm			R_wrist_radius			R_wrist_ulna			L_humerus			L_elbow_med			L_elbow_lat			L_forearm			L_wrist_radius			L_wrist_ulna			R_HJC			L_HJC			R_HJC_reg			L_HJC_reg			
		X1	Y1	Z1	X2	Y2	Z2	X3	Y3	Z3	X4	Y4	Z4	X5	Y5	Z5	X6	Y6	Z6	X7	Y7	Z7	X8	Y8	Z8	X9	Y9	Z9	X10	Y10	Z10	X11	Y11	Z11	X12	Y12	Z12	X13	Y13	Z13	X14	Y14	Z14	X15	Y15	Z15	X16	Y16	Z16	X17	Y17	Z17	X18	Y18	Z18	X19	Y19	Z19	X20	Y20	Z20	X21	Y21	Z21	X22	Y22	Z22	X23	Y23	Z23	X24	Y24	Z24	X25	Y25	Z25	X26	Y26	Z26	X27	Y27	Z27	X28	Y28	Z28	X29	Y29	Z29	X30	Y30	Z30	X31	Y31	Z31	X32	Y32	Z32	X33	Y33	Z33	X34	Y34	Z34	X35	Y35	Z35	X36	Y36	Z36	X37	Y37	Z37	X38	Y38	Z38	X39	Y39	Z39	X40	Y40	Z40	X41	Y41	Z41	X42	Y42	Z42	X43	Y43	Z43	X44	Y44	Z44	X45	Y45	Z45	X46	Y46	Z46	X47	Y47	Z47	X48	Y48	Z48	X49	Y49	Z49	X50	Y50	Z50	X51	Y51	Z51	

101	1.00000000	-156.76226	579.45809	-317.67336	-135.02168	436.27246	-304.86772	-291.08930	103.67700	-304.45208	-350.02381	73.34714	-364.97838	-159.82817	39.72660	-266.89425	-120.53857	68.94376	-316.10024	-169.57157	576.84658	-867.12281	-140.97133	379.99266	-873.03006	-299.48572	113.62654	-879.73621	-356.88684	73.10489	-817.12673	-165.35677	34.79101	-928.85835	-121.16055	66.21046	-871.26721	-167.28347	330.83714	-306.74430	-202.59219	453.84171	-278.68009	-239.69270	347.73722	-270.87698	-211.18703	413.20307	-916.00406	-253.45582	301.99738	-904.17946	-371.15575	780.50128	-339.38268	-273.05475	729.32875	-319.76275	-285.64853	662.09914	-310.74835	-425.65427	680.59482	-353.41954	-320.52518	624.82034	-334.31176	-365.57919	795.45254	-803.13431	-254.38906	727.87598	-838.65940	-431.73754	709.54093	-819.71521	-318.03078	642.05048	-863.69721	-367.67477	837.75108	-433.41449	-503.63222	958.50192	-538.56135	-383.80768	814.90466	-706.37186	-500.46019	952.10706	-629.75395	-36.53101	1105.56995	-598.96975	17.66367	1027.98559	-449.33696	6.47838	1037.67202	-743.17411	-11.22582	946.15724	-572.01891	-13.68569	942.22695	-611.78971	140.96154	861.76642	-382.33959	156.95522	703.23721	-376.37632	184.83782	756.41157	-312.45347	354.95948	809.07958	-436.28851	423.63525	830.45931	-487.84138	439.48807	799.44991	-476.91767	147.58503	846.19773	-788.05390	130.98025	710.80077	-788.47384	178.01944	749.31432	-842.12167	350.18002	800.80730	-734.35273	402.84241	820.89274	-686.39503	415.92037	794.51585	-704.02525	-488.38444	802.12639	-468.10752	-496.73770	788.37084	-664.92707	-481.42018	800.41862	-473.60544	-475.14031	787.75813	-654.14821	
102	1.01000000	-157.21837	579.78518	-319.03146	-135.43959	436.59307	-306.07467	-291.10083	103.70640	-304.44367	-350.07545	73.33270	-364.93801	-159.78363	39.79312	-266.94384	-120.54199	68.95632	-316.16669	-170.55204	577.42999	-866.95233	-141.75111	380.43108	-872.98803	-299.54776	113.65498	-879.77003	-356.97407	73.15466	-817.17467	-165.38205	34.81308	-928.93459	-121.16127	66.27089	-871.28634	-167.21003	331.99828	-307.72593	-202.98483	454.07219	-279.68856	-239.83358	348.20193	-271.24982	-212.04846	413.46881	-915.86754	-254.13184	302.16091	-904.15316	-369.53645	782.88057	-339.85784	-272.14580	730.92270	-320.78452	-285.09657	663.82113	-311.64478	-425.11658	683.70683	-353.72141	-320.42564	626.88122	-334.95993	-364.46310	797.88825	-802.88508	-253.95649	729.28934	-838.47515	-431.43835	712.60340	-819.29767	-318.29188	644.06785	-863.54413	-367.36177	841.38415	-433.09506	-502.73492	963.09522	-538.00759	-383.54832	818.27415	-706.30913	-499.67939	956.68639	-629.34100	-36.65204	1112.15119	-598.85627	17.53874	1033.87618	-448.95956	6.38002	1044.01057	-743.26474	-11.18209	952.55948	-571.98351	-12.37792	950.32033	-612.47497	139.54810	866.16650	-382.23868	153.77159	707.36881	-375.97774	182.39506	760.24753	-312.63501	352.30654	811.62943	-437.12548	420.54078	832.72256	-489.10730	436.61100	801.30272	-477.92469	146.18257	851.20495	-788.71470	128.38435	715.93729	-789.61456	175.91224	754.50459	-843.17720	347.48778	803.95708	-734.53153	400.38881	824.03667	-686.34767	413.40394	797.59116	-703.97589	-488.31315	806.50700	-467.72104	-496.86701	792.75922	-664.53257	-481.33550	804.57657	-473.23660	-475.28894	791.89443	-653.97150	
103	1.02000000	-157.80757	580.23483	-320.60434	-136.03047	437.22190	-307.26323	-291.07567	103.80383	-304.45784	-350.09665	73.33336	-364.91657	-159.72495	39.87059	-267.00196	-120.56013	68.99739	-316.24871	-171.68671	578.12339	-866.57847	-142.62765	380.99998	-872.82623	-299.64676	113.65467	-879.73967	-357.07204	73.21161	-817.24328	-165.42012	34.84071	-929.00203	-121.18429	66.35891	-871.34840	-167.97280	331.90218	-308.13045	-203.50414	454.39859	-280.91144	-239.92797	348.55969	-271.77249	-213.05772	413.70498	-915.53664	-254.76141	302.36432	-903.96767	-367.81726	785.76989	-340.60448	-271.08707	732.68624	-321.95247	-284.65579	665.82135	-312.64064	-424.60988	687.19578	-354.28007	-320.39364	629.27294	-335.86212	-363.21593	800.70531	-802.61167	-253.39144	730.85929	-838.04585	-431.04366	716.07754	-818.84493	-318.57040	646.42157	-863.28810	-367.25006	845.43593	-432.83603	-501.81320	968.29425	-537.57101	-383.23918	822.07741	-706.28218	-498.81516	961.90108	-629.02484	-36.81830	1119.46499	-598.58603	17.43464	1040.95310	-448.54612	6.24404	1051.16576	-743.40438	-11.02214	959.74645	-571.86484	-12.12546	957.41018	-612.36354	138.03746	871.31296	-382.12082	150.25355	712.30653	-375.52258	179.41725	764.75126	-312.89925	349.47918	814.81012	-437.63833	417.14171	835.65098	-489.99653	433.46845	803.93085	-478.60378	144.64595	856.86712	-789.35958	125.67021	721.77832	-790.95859	173.77130	760.62039	-844.49380	345.20729	807.78497	-734.80236	397.86655	827.71977	-686.41567	410.91426	801.71621	-704.29292	-488.44796	811.45807	-467.46884	-497.04434	797.75555	-664.28161	-481.42372	809.27076	-473.01684	-475.49325	796.62470	-653.91733	
104	1.03000000	-158.58923	580.86481	-322.24079	-136.80962	437.92914	-308.51626	-291.07740	103.92311	-304.46379	-350.11397	73.31172	-364.88037	-159.68735	39.96731	-267.08349	-120.59794	69.09802	-316.38961	-172.98171	578.89200	-865.87523	-143.65290	381.64230	-872.45317	-299.78089	113.65854	-879.70451	-357.17230	73.21017	-817.35237	-165.45758	34.85008	-929.02604	-121.25456	66.44518	-871.41822	-169.08455	330.97651	-308.62549	-204.22593	454.81655	-282.27361	-240.24114	348.84606	-272.75267	-214.14597	414.11894	-915.11590	-255.38273	302.58467	-903.67241	-366.10777	788.99766	-341.48103	-269.88430	734.74241	-323.18895	-284.28144	668.00379	-313.66546	-424.08219	690.90081	-355.11891	-320.47178	631.90710	-337.00579	-361.83708	803.91454	-802.24700	-252.77027	732.61710	-837.39391	-430.55945	719.98196	-818.41559	-318.96776	649.04532	-862.73402	-367.26995	850.03225	-432.62379	-500.89742	974.07553	-537.28354	-382.87645	826.31286	-706.29260	-497.91266	967.68613	-628.73990	-37.04825	1127.39442	-598.06155	17.31113	1048.92481	-448.15868	6.11969	1059.12843	-743.54024	-10.68599	967.85448	-571.91659	-13.18123	963.52728	-611.43046	136.28766	877.16852	-381.97727	146.40886	717.81708	-375.50652	176.13178	769.89802	-312.99018	346.47167	818.60038	-437.90151	414.13223	838.84255	-490.24187	430.08819	807.20119	-478.99463	143.01111	863.18023	-790.02212	122.78037	728.29884	-792.27648	171.39551	767.21672	-845.77282	342.86528	812.64671	-735.30037	395.22329	831.96774	-686.53453	408.26924	806.39456	-704.76721	-488.69207	816.99440	-467.29035	-497.22990	803.29691	-664.10607	-481.61537	814.53492	-472.89768	-475.70645	801.88614	-653.95119	
105	1.04000000	-159.63963	581.54567	-324.01619	-137.72216	438.47837	-310.10636	-291.12559	104.07114	-304.47364	-350.18420	73.25888	-364.83565	-159.73542	40.12141	-267.19852	-120.63240	69.26252	-316.60729	-174.39448	579.73666	-864.94339	-144.83857	382.32056	-871.88190	-299.94047	113.75224	-879.86877	-357.28476	73.15934	-817.50274	-165.47924	34.84565	-929.02650	-121.33834	66.50231	-871.43637	-170.12511	330.39565	-310.20721	-205.17689	455.34657	-283.62885	-240.95309	349.14803	-273.97150	-215.32156	414.72028	-914.63357	-256.13245	302.88373	-903.43942	-364.47887	792.33352	-342.18998	-268.74007	736.83590	-324.50819	-283.95886	670.27003	-314.83153	-423.53760	694.78759	-356.18736	-320.72929	634.72230	-338.28598	-360.29203	807.44612	-801.77491	-252.09426	734.56511	-836.57856	-430.02287	724.36528	-818.02052	-319.41712	651.89717	-861.89897	-367.28462	855.19478	-432.43163	-499.97428	980.40825	-537.01553	-382.45644	830.97882	-706.34207	-497.00944	974.01219	-628.50949	-37.34163	1136.31579	-597.89062	17.07251	1057.74283	-447.87513	6.01813	1067.89804	-743.77270	-10.21107	976.85994	-571.99713	-13.90829	971.01846	-610.75358	134.21044	883.72822	-381.76157	142.32857	723.97177	-376.04957	172.66693	775.65355	-312.88726	343.20663	823.03167	-437.92591	411.38229	842.52314	-490.11848	426.60757	810.95711	-479.14274	141.30468	870.19203	-790.80148	119.64563	735.51197	-793.45821	168.66354	774.11757	-846.65632	340.15382	818.19920	-735.85306	392.43832	836.82433	-686.72544	405.34887	811.29000	-705.08288	-488.92220	823.09106	-467.12335	-497.39022	809.34126	-663.93863	-481.77873	820.31702	-472.78743	-475.90644	807.64808	-654.01219	
106	1.05000000	-160.93233	582.18134	-326.03183	-138.83822	439.02287	-311.93276	-291.20038	104.20193	-304.57692	-350.31684	73.15053	-364.80038	-159.85351	40.38294	-267.33464	-120.67026	69.42766	-316.84235	-175.89722	580.64998	-863.94351	-145.99944	383.00380	-871.12304	-300.10695	113.90841	-880.18811	-357.39130	73.11814	-817.62992	-165.49661	34.83472	-929.02314	-121.40533	66.55745	-871.40507	-171.25379	330.44888	-312.40173	-206.36722	455.93677	-285.01679	-241.89801	349.48425	-275.01877	-216.63651	415.31065	-913.98054	-257.05160	303.22403	-903.14298	-362.78732	795.80193	-342.90813	-267.72204	738.87144	-325.83338	-283.75022	672.65793	-316.17070	-423.06072	699.00862	-357.36631	-321.15706	637.70720	-339.61981	-358.53015	811.21814	-801.30924	-251.32851	736.64569	-835.65952	-429.40211	729.13434	-817.63794	-319.80188	654.93513	-860.95723	-367.49313	860.64513	-432.23690	-499.07028	987.19885	-536.72963	-381.97618	836.07363	-706.43283	-496.05791	980.86474	-628.38043	-37.67306	1146.27360	-598.27344	16.64296	1067.38403	-447.61404	5.89785	1077.46245	-744.15648	-9.66813	986.61608	-571.89800	-13.49150	980.67949	-610.72517	131.85862	890.98864	-381.55104	137.92892	731.00316	-376.74630	168.92802	782.10254	-312.68393	339.64492	828.06765	-437.71955	408.19183	846.97920	-489.90139	422.88562	815.23222	-478.96610	139.42549	877.95354	-791.61121	116.37746	743.47706	-794.70516	165.63392	781.72709	-847.49296	337.24357	824.01623	-736.15242	389.46074	842.20973	-686.96964	402.21467	816.56245	-705.34167	-489.33622	829.59251	-467.09105	-497.55707	815.91166	-663.92124	-482.10152	826.45865	-472.78913	-476.13907	813.92033	-654.20439	
